<svg xmlns="http://www.w3.org/2000/svg" width="106.667" height="106.667" preserveAspectRatio="xMidYMid meet" version="1.0" viewBox="0 0 80 80"><g fill="#000" stroke="none"><path d="M212 788 c-8 -8 -12 -45 -12 -100 l0 -88 -88 0 c-55 0 -92 -4 -100 -12 -17 -17 -17 -559 0 -576 17 -17 559 -17 576 0 8 8 12 45 12 100 l0 88 88 0 c55 0 92 4 100 12 17 17 17 559 0 576 -17 17 -559 17 -576 0z m508 -288 l0 -220 -220 0 -220 0 0 220 0 220 220 0 220 0 0 -220z m-520 -128 c0 -102 4 -152 12 -160 8 -8 58 -12 160 -12 l148 0 0 -60 0 -60 -220 0 -220 0 0 220 0 220 60 0 60 0 0 -148z" transform="translate(0.000000,80.000000) scale(0.100000,-0.100000)"/></g></svg>