<svg xmlns="http://www.w3.org/2000/svg" width="106.667" height="106.667" preserveAspectRatio="xMidYMid meet" version="1.0" viewBox="0 0 80 80"><g fill="#666" stroke="none"><path d="M82 494 c-45 -42 -82 -84 -82 -94 0 -17 155 -170 172 -170 14 0 68 53 68 67 0 8 -21 34 -47 59 l-48 44 48 45 c26 25 47 52 47 59 0 15 -52 66 -66 66 -6 0 -47 -34 -92 -76z" transform="translate(0.000000,80.000000) scale(0.100000,-0.100000)"/><path d="M587 542 c-15 -15 -27 -32 -27 -37 0 -5 21 -31 48 -58 l47 -48 -47 -45 c-27 -25 -48 -48 -48 -53 0 -4 16 -22 35 -41 l35 -34 27 24 c81 71 143 136 143 151 0 19 -155 169 -174 169 -7 0 -24 -13 -39 -28z" transform="translate(0.000000,80.000000) scale(0.100000,-0.100000)"/></g></svg>